Coordinates
version=1
nRows=19
nColumns=36
inDegrees=yes

Units are S.I. units (second, meters, Newtons, ...)
If the header above contains a line with 'inDegrees', this indicates whether rotational values are in degrees (yes) or radians (no).

endheader
time	pelvis_tilt	pelvis_list	pelvis_rotation	pelvis_tx	pelvis_ty	pelvis_tz	hip_flexion_r	hip_adduction_r	hip_rotation_r	knee_angle_r	knee_angle_r_beta	ankle_angle_r	subtalar_angle_r	mtp_angle_r	hip_flexion_l	hip_adduction_l	hip_rotation_l	knee_angle_l	knee_angle_l_beta	ankle_angle_l	subtalar_angle_l	mtp_angle_l	lumbar_extension	lumbar_bending	lumbar_rotation	arm_flex_r	arm_add_r	arm_rot_r	elbow_flex_r	pro_sup_r	arm_flex_l	arm_add_l	arm_rot_l	elbow_flex_l	pro_sup_l
      2.45000000	     -0.85849928	      1.82528021	     -1.05956178	     -0.29504562	      1.28193245	     -0.08129244	     -4.15078823	     -4.76906996	      7.58427472	      4.13572083	      0.07218195	     11.69593732	    -19.20079207	     -7.49999987	     -5.11129897	     -1.67796357	     13.39671818	      0.96917993	      0.01691538	     10.40070323	    -10.54584887	     -7.49999987	     -4.63318362	     -0.31511694	     -4.01750429	      4.38346318	     -3.96605467	      9.42874134	     23.77336085	     83.50328828	      4.94895717	     -4.29637360	      5.98359244	     23.04140195	     80.04151125
      2.46666670	     -0.78971313	      1.80797275	     -1.06611157	     -0.29498825	      1.28219707	     -0.08123468	     -4.19709418	     -4.74722715	      7.56482863	      4.19522707	      0.07322053	     11.89143960	    -19.08638911	     -7.49999987	     -5.15297822	     -1.68558846	     13.52845965	      0.95981158	      0.01675187	     10.43222048	    -10.53342352	     -7.49999987	     -4.76176165	     -0.27385930	     -4.01710901	      4.41528940	     -4.00186721	      9.60630271	     23.84944220	     82.99442649	      4.94128651	     -4.29092587	      5.98531973	     23.10225984	     79.85525360
      2.48333330	     -0.71248347	      1.79789696	     -1.10312568	     -0.29522175	      1.28223487	     -0.08126860	     -4.27713345	     -4.73358157	      7.73590664	      4.20033018	      0.07330959	     11.84956163	    -19.34566660	     -7.49999987	     -5.21608834	     -1.69030113	     13.64508572	      0.93918101	      0.01639180	     10.45305606	    -10.56916845	     -7.49999987	     -4.92425048	     -0.25834401	     -3.99284742	      4.45680533	     -4.14143455	     11.02080020	     24.06559998	     77.10502370	      4.95034658	     -4.34946042	      7.17549222	     23.21551849	     74.39134590
      2.50000000	     -0.70194211	      1.77328084	     -1.09700743	     -0.29504123	      1.28234289	     -0.08121146	     -4.30248168	     -4.70384550	      7.81731259	      4.19229307	      0.07316932	     11.87756476	    -19.39910573	     -7.49999987	     -5.21422320	     -1.72714527	     13.62829893	      0.94893973	      0.01656212	     10.53869655	    -10.39353667	     -7.49999987	     -4.88848341	     -0.24134378	     -4.00858746	      4.56353190	     -4.30166775	     12.88349038	     23.97723194	     72.48772145	      4.99783845	     -4.49559400	      8.72238839	     23.09983767	     70.35191307
      2.51666670	     -0.71420710	      1.80086138	     -1.17031497	     -0.29528336	      1.28225298	     -0.08116670	     -4.23435894	     -4.72763909	      7.86588920	      4.25651731	      0.07429024	     12.11635739	    -19.15228911	     -7.49999987	     -5.18654209	     -1.69745480	     13.52956312	      0.98865992	      0.01725537	     10.59139993	    -10.30686557	     -7.49999987	     -4.89697731	     -0.28859750	     -3.84258807	      4.42123260	     -4.03000088	      9.54380035	     23.93220366	     83.30344581	      4.98840271	     -4.26427239	      6.10681386	     22.96878931	     79.91886964
      2.53333330	     -0.67290155	      1.81201451	     -1.15037334	     -0.29520293	      1.28236998	     -0.08106522	     -4.30342945	     -4.73343915	      7.86543690	      4.22921139	      0.07381366	     12.13770934	    -19.12228514	     -7.49999987	     -5.25495657	     -1.70002018	     13.55540812	      0.96016479	      0.01675804	     10.60878682	    -10.25112914	     -7.49999987	     -4.94522500	     -0.30758920	     -3.83637920	      4.43397750	     -4.04721965	      9.70395573	     23.94704010	     83.14421126	      5.01857212	     -4.29232679	      6.19958568	     22.94379842	     80.10586981
      2.55000000	     -0.66813557	      1.81078299	     -1.14813292	     -0.29543609	      1.28217823	     -0.08109223	     -4.30829101	     -4.72962023	      7.85203620	      4.24011997	      0.07400405	     12.18831329	    -19.10027731	     -7.49999987	     -5.28689574	     -1.71091959	     13.58867907	      0.92741863	      0.01618651	     10.67671646	    -10.29945421	     -7.49999987	     -4.95778868	     -0.31327578	     -3.80816128	      4.43799157	     -4.03715089	      9.72179172	     23.93448094	     83.03137525	      5.13366550	     -4.35882318	      6.39087071	     22.92501609	     79.98195018
      2.56666670	     -0.52667532	      1.82005483	     -1.10867793	     -0.29545254	      1.28240735	     -0.08105899	     -4.44757397	     -4.76132065	      7.36470983	      4.32421780	      0.07547184	     12.80272022	    -18.12120994	     -7.49999987	     -5.46293736	     -1.71484668	     13.55257142	      0.87978556	      0.01535515	     10.88426026	    -10.03381129	     -7.49999987	     -5.19423859	     -0.31953967	     -3.97207280	      4.58996785	     -3.92562228	     10.10504476	     23.87166676	     76.53760056	      5.22672600	     -4.31696973	      6.43209458	     22.88988251	     74.14038778
      2.58333330	     -0.63025141	      1.81616215	     -1.18038588	     -0.29557193	      1.28211258	     -0.08102599	     -4.37406087	     -4.74903854	      7.82247198	      4.25864917	      0.07432745	     12.20234447	    -19.12379594	     -7.49999987	     -5.38658735	     -1.71714241	     13.58049331	      0.87190026	      0.01521753	     10.71810044	    -10.35310733	     -7.49999987	     -5.02598944	     -0.32843986	     -3.76491759	      4.45604591	     -4.05723545	      9.81460612	     24.01049190	     82.93339355	      5.24859470	     -4.42049054	      6.17503683	     23.09141934	     80.02128529
      2.60000000	     -0.53807637	      1.80831505	     -1.16566004	     -0.29532053	      1.28229796	     -0.08092162	     -4.53408734	     -4.74977119	      7.82138922	      4.18896732	      0.07311127	     12.06274742	    -19.18825578	     -7.49999987	     -5.52573335	     -1.73508706	     13.59082274	      0.85167726	      0.01486457	     10.72910757	    -10.32921455	     -7.49999987	     -5.12509318	     -0.34221257	     -3.82757897	      4.46141327	     -4.17079109	     11.37159934	     24.19573635	     76.91089845	      5.25520525	     -4.54696156	      7.19328673	     23.34116203	     74.64870128
      2.61666670	     -0.56271498	      1.79527533	     -1.17967243	     -0.29552944	      1.28216338	     -0.08096859	     -4.50593505	     -4.74808388	      7.76153126	      4.21417160	      0.07355117	     11.98215399	    -19.17093189	     -7.49999987	     -5.50766147	     -1.74550415	     13.57670768	      0.84845005	      0.01480825	     10.73006469	    -10.27420939	     -7.49999987	     -5.03118448	     -0.32886231	     -3.80049574	      4.43875199	     -4.06160975	      9.86681546	     24.01290982	     82.89954552	      5.26055429	     -4.49453367	      6.30547338	     23.01761411	     79.82908687
      2.63333330	     -0.56036324	      1.75327071	     -1.19210412	     -0.29534773	      1.28223387	     -0.08089660	     -4.50981617	     -4.71052687	      7.70188287	      4.20113178	      0.07332358	     11.92445724	    -19.12103249	     -7.49999987	     -5.54223330	     -1.78704738	     13.54966098	      0.83701020	      0.01460858	     10.68769735	    -10.26738674	     -7.49999987	     -4.95645408	     -0.30197550	     -3.89425507	      4.54341485	     -4.18079301	     11.20028907	     23.84386399	     80.89795710	      5.19202249	     -4.61653174	      6.96395402	     22.89416324	     78.12512884
      2.65000000	     -0.46244304	      1.69417107	     -1.17226539	     -0.28896648	      1.28252098	     -0.07791225	     -4.71659578	     -4.59044683	      7.67185976	      4.14506549	      0.07234504	     11.85459833	    -19.14697710	     -7.49999987	     -5.71366214	     -1.87724918	     13.55103826	      0.85845525	      0.01498287	     10.65370128	    -10.21962681	     -7.49999987	     -4.86930726	     -0.32145912	     -3.89267035	      4.32322150	     -4.10935194	     11.17202700	     23.80637318	     80.91191418	      4.97780596	     -4.68119355	      6.90926374	     22.81915216	     78.13490578
      2.66666670	     -0.47915011	      1.68173096	     -1.18314709	     -0.29533515	      1.27979420	     -0.08100443	     -4.70073444	     -4.58046617	      7.64547853	      4.13448258	      0.07216033	     11.85882852	    -19.15992531	     -7.49999987	     -5.69779420	     -1.87145739	     13.54605003	      0.84125296	      0.01468263	     10.67920258	    -10.22367993	     -7.49999987	     -4.87280235	     -0.32300476	     -3.88314860	      4.33327143	     -4.11431296	     11.16822958	     23.81365543	     80.91092869	      4.96627933	     -4.69673781	      6.90335105	     22.81614248	     78.13374457
      2.68333330	     -0.34490003	      1.62109379	     -1.07108146	     -0.29542887	      1.28021460	     -0.08118940	     -4.94687054	     -4.48662964	      7.62279134	      3.96068779	      0.06912704	     11.52206667	    -19.63178355	     -7.49999987	     -5.83826787	     -1.95424962	     13.63313701	      0.86250986	      0.01505364	     10.83482478	    -10.00772671	     -7.49999987	     -4.95580339	     -0.27175659	     -4.09971525	      4.43860959	     -4.08796846	     10.97666354	     23.71078893	     81.91294413	      4.93652312	     -4.64454222	      5.99165503	     22.62137140	     79.09688203
      2.70000000	     -0.39750036	      1.59505709	     -1.00291591	     -0.29518943	      1.28044862	     -0.08126205	     -4.89132053	     -4.44756734	      7.60146447	      3.93610924	      0.06869807	     11.34315289	    -19.91611324	     -7.49999987	     -5.74490442	     -1.97328866	     13.68371473	      0.88615595	      0.01546634	     10.88625700	     -9.91839018	     -7.49999987	     -4.90062861	     -0.24241804	     -4.18256430	      4.41502749	     -4.02727507	     10.29473959	     23.76971621	     82.78274484	      4.90475516	     -4.60072115	      5.29546381	     22.59987309	     80.09575193
      2.71666670	     -0.41738865	      1.59060317	     -0.95779851	     -0.29532475	      1.28312483	     -0.08141807	     -4.84664355	     -4.44810722	      7.50122277	      3.96874001	      0.06926758	     11.37881355	    -19.86657724	     -7.49999987	     -5.68585718	     -1.96202086	     13.78669842	      0.91203224	      0.01591797	     10.86481961	     -9.93434369	     -7.49999987	     -4.87867266	     -0.23568507	     -4.29253602	      4.46718284	     -4.03388750	     10.42453083	     23.75197765	     82.69100495	      4.89782469	     -4.63032842	      5.27914652	     22.56495710	     80.15095141
      2.73333330	     -0.51751219	      1.58215317	     -0.96009260	     -0.29508764	      1.28299933	     -0.08139600	     -4.72990218	     -4.43873350	      7.53182373	      3.91471206	      0.06832461	     11.18869609	    -20.07602795	     -7.49999987	     -5.54366657	     -1.96336002	     13.82358321	      0.90240632	      0.01574996	     10.83332678	     -9.91403969	     -7.49999987	     -4.71817287	     -0.22721604	     -4.34374712	      4.53541367	     -4.18364046	     11.94030184	     23.66100130	     78.84090802	      4.85714472	     -4.72742392	      6.23602271	     22.57140497	     76.82033433
      2.75000000	     -0.44207031	      1.57113621	     -0.95893761	     -0.29527127	      1.28301354	     -0.08148461	     -4.78772927	     -4.42989065	      7.47211274	      3.89195223	      0.06792738	     11.19837129	    -20.04753901	     -7.49999987	     -5.58623957	     -1.96678846	     13.71762326	      0.89770713	      0.01566795	     10.93568237	     -9.60305054	     -7.49999987	     -4.83075287	     -0.21626437	     -4.37398422	      4.60537582	     -4.17583741	     11.54804741	     23.63016711	     81.27458789	      4.91598686	     -4.74207954	      5.93285957	     22.48505375	     79.00695932
